<mxfile host="65bd71144e">
    <diagram id="flsh0N5JMIZf43IOwCOS" name="Main">
        <mxGraphModel dx="1122" dy="778" grid="1" gridSize="10" guides="1" tooltips="1" connect="1" arrows="1" fold="1" page="0" pageScale="1" pageWidth="800" pageHeight="800" background="none" math="0" shadow="0">
            <root>
                <mxCell id="0"/>
                <mxCell id="1" parent="0"/>
                <mxCell id="127" value="" style="rounded=0;whiteSpace=wrap;html=1;fillColor=#CCE5FF;strokeColor=none;" vertex="1" parent="1">
                    <mxGeometry x="310" y="400" width="210" height="120" as="geometry"/>
                </mxCell>
                <mxCell id="82" value="" style="rounded=0;whiteSpace=wrap;html=1;fillColor=none;shadow=0;" parent="1" vertex="1">
                    <mxGeometry x="-250" y="-100" width="110" height="120" as="geometry"/>
                </mxCell>
                <mxCell id="121" value="" style="rounded=0;whiteSpace=wrap;html=1;strokeColor=none;fillColor=#CCCCCC;arcSize=12;" parent="1" vertex="1">
                    <mxGeometry x="-360" y="-160" width="880" height="40" as="geometry"/>
                </mxCell>
                <mxCell id="122" value="🕰️&amp;nbsp;&lt;span style=&quot;background-color: transparent;&quot;&gt;Last Updated&lt;/span&gt;" style="text;html=1;align=left;verticalAlign=middle;whiteSpace=wrap;rounded=0;fontStyle=1;shadow=0;fontColor=default;" parent="1" vertex="1">
                    <mxGeometry x="290" y="-150" width="100" height="30" as="geometry"/>
                </mxCell>
                <mxCell id="123" value="&lt;span style=&quot;&quot;&gt;2025-03-17 04:00&lt;/span&gt;&lt;span style=&quot;background-color: transparent;&quot;&gt;&amp;nbsp;UTC&lt;/span&gt;" style="text;html=1;align=left;verticalAlign=middle;whiteSpace=wrap;rounded=0;fontStyle=0;shadow=0;fontColor=default;" parent="1" vertex="1">
                    <mxGeometry x="390" y="-150" width="130" height="30" as="geometry"/>
                </mxCell>
                <mxCell id="43" value="" style="rounded=0;whiteSpace=wrap;html=1;fillColor=none;shadow=0;" parent="1" vertex="1">
                    <mxGeometry x="280" y="-20" width="120" height="80" as="geometry"/>
                </mxCell>
                <mxCell id="20" value="" style="rounded=0;whiteSpace=wrap;html=1;fillColor=none;shadow=0;" parent="1" vertex="1">
                    <mxGeometry x="-190" y="440" width="200" height="80" as="geometry"/>
                </mxCell>
                <mxCell id="18" value="" style="rounded=0;whiteSpace=wrap;html=1;fillColor=none;shadow=0;" parent="1" vertex="1">
                    <mxGeometry x="280" y="80" width="240" height="120" as="geometry"/>
                </mxCell>
                <mxCell id="2" value="http-header-retry-after" style="text;html=1;align=center;verticalAlign=middle;whiteSpace=wrap;rounded=1;strokeColor=#d6b656;glass=0;shadow=0;fillColor=#fff2cc;labelBackgroundColor=none;labelBorderColor=none;spacing=2;arcSize=50;" parent="1" vertex="1">
                    <mxGeometry x="290" y="160" width="140" height="30" as="geometry"/>
                </mxCell>
                <mxCell id="14" style="html=1;exitX=0;exitY=0.5;exitDx=0;exitDy=0;entryX=1;entryY=0.5;entryDx=0;entryDy=0;flowAnimation=0;endArrow=blockThin;endFill=1;shadow=0;rounded=0;curved=1;" parent="1" source="3" target="6" edge="1">
                    <mxGeometry relative="1" as="geometry"/>
                </mxCell>
                <mxCell id="17" style="html=1;exitX=0;exitY=0.5;exitDx=0;exitDy=0;entryX=1;entryY=0.5;entryDx=0;entryDy=0;endArrow=blockThin;endFill=1;shadow=0;rounded=0;curved=1;" parent="1" source="3" target="2" edge="1">
                    <mxGeometry relative="1" as="geometry"/>
                </mxCell>
                <mxCell id="3" value="exfetch" style="text;html=1;align=center;verticalAlign=middle;whiteSpace=wrap;rounded=1;strokeColor=#d6b656;glass=0;shadow=0;fillColor=#fff2cc;labelBackgroundColor=none;labelBorderColor=none;spacing=2;absoluteArcSize=0;arcSize=50;" parent="1" vertex="1">
                    <mxGeometry x="450" y="140" width="60" height="30" as="geometry"/>
                </mxCell>
                <mxCell id="97" style="html=1;exitX=0;exitY=0.5;exitDx=0;exitDy=0;entryX=1;entryY=0.5;entryDx=0;entryDy=0;endArrow=blockThin;endFill=1;rounded=0;" parent="1" source="6" target="40" edge="1">
                    <mxGeometry relative="1" as="geometry"/>
                </mxCell>
                <mxCell id="6" value="http-header-link" style="text;html=1;align=center;verticalAlign=middle;whiteSpace=wrap;rounded=1;strokeColor=#d6b656;glass=0;shadow=0;fillColor=#fff2cc;labelBackgroundColor=none;labelBorderColor=none;spacing=2;arcSize=50;" parent="1" vertex="1">
                    <mxGeometry x="305" y="120" width="110" height="30" as="geometry"/>
                </mxCell>
                <mxCell id="19" value="Net" style="text;html=1;align=center;verticalAlign=middle;whiteSpace=wrap;rounded=0;fontStyle=1;shadow=0;" parent="1" vertex="1">
                    <mxGeometry x="280" y="80" width="240" height="30" as="geometry"/>
                </mxCell>
                <mxCell id="103" style="html=1;entryX=1;entryY=0.5;entryDx=0;entryDy=0;endArrow=blockThin;endFill=1;rounded=0;exitX=0.5;exitY=0;exitDx=0;exitDy=0;" parent="1" source="21" target="74" edge="1">
                    <mxGeometry relative="1" as="geometry"/>
                </mxCell>
                <mxCell id="104" style="edgeStyle=none;html=1;exitX=0.5;exitY=0;exitDx=0;exitDy=0;entryX=0;entryY=0.5;entryDx=0;entryDy=0;endArrow=blockThin;endFill=1;rounded=0;curved=1;" parent="1" source="21" target="33" edge="1">
                    <mxGeometry relative="1" as="geometry"/>
                </mxCell>
                <mxCell id="105" style="edgeStyle=none;html=1;exitX=1;exitY=0.5;exitDx=0;exitDy=0;entryX=0;entryY=0.5;entryDx=0;entryDy=0;endArrow=blockThin;endFill=1;rounded=0;curved=1;" parent="1" source="21" target="79" edge="1">
                    <mxGeometry relative="1" as="geometry"/>
                </mxCell>
                <mxCell id="21" value="deno-nodejs-transformer" style="text;html=1;align=center;verticalAlign=middle;whiteSpace=wrap;rounded=1;strokeColor=#666666;glass=0;shadow=0;fillColor=#E6E6E6;labelBackgroundColor=none;labelBorderColor=none;spacing=2;gradientColor=none;arcSize=50;" parent="1" vertex="1">
                    <mxGeometry x="-165" y="450" width="150" height="30" as="geometry"/>
                </mxCell>
                <mxCell id="29" value="" style="rounded=0;whiteSpace=wrap;html=1;fillColor=none;shadow=0;" parent="1" vertex="1">
                    <mxGeometry x="30" y="-100" width="230" height="400" as="geometry"/>
                </mxCell>
                <mxCell id="30" value="Assert / Determine" style="text;html=1;align=center;verticalAlign=middle;whiteSpace=wrap;rounded=0;fontStyle=1;shadow=0;" parent="1" vertex="1">
                    <mxGeometry x="30" y="-100" width="230" height="30" as="geometry"/>
                </mxCell>
                <mxCell id="31" value="bytes-matcher" style="text;html=1;align=center;verticalAlign=middle;whiteSpace=wrap;rounded=1;strokeColor=#d6b656;glass=0;shadow=0;fillColor=#fff2cc;labelBackgroundColor=none;labelBorderColor=none;spacing=2;arcSize=50;" parent="1" vertex="1">
                    <mxGeometry x="140" y="-60" width="100" height="30" as="geometry"/>
                </mxCell>
                <mxCell id="111" style="html=1;exitX=1;exitY=0.5;exitDx=0;exitDy=0;entryX=0;entryY=0.5;entryDx=0;entryDy=0;endArrow=blockThin;endFill=1;rounded=0;curved=1;" parent="1" source="32" target="34" edge="1">
                    <mxGeometry relative="1" as="geometry"/>
                </mxCell>
                <mxCell id="32" value="is-empty" style="text;html=1;align=center;verticalAlign=middle;whiteSpace=wrap;rounded=1;strokeColor=#d6b656;glass=0;shadow=0;fillColor=#fff2cc;labelBackgroundColor=none;labelBorderColor=none;spacing=2;arcSize=50;" parent="1" vertex="1">
                    <mxGeometry x="40" y="-60" width="70" height="30" as="geometry"/>
                </mxCell>
                <mxCell id="112" style="edgeStyle=none;html=1;exitX=1;exitY=0.5;exitDx=0;exitDy=0;entryX=0;entryY=0.5;entryDx=0;entryDy=0;endArrow=blockThin;endFill=1;rounded=0;curved=1;" parent="1" source="33" target="34" edge="1">
                    <mxGeometry relative="1" as="geometry"/>
                </mxCell>
                <mxCell id="33" value="is-json" style="text;html=1;align=center;verticalAlign=middle;whiteSpace=wrap;rounded=1;strokeColor=#d6b656;glass=0;shadow=0;fillColor=#fff2cc;labelBackgroundColor=none;labelBorderColor=none;spacing=2;arcSize=50;" parent="1" vertex="1">
                    <mxGeometry x="45" y="20" width="60" height="30" as="geometry"/>
                </mxCell>
                <mxCell id="34" value="is-object-plain" style="text;html=1;align=center;verticalAlign=middle;whiteSpace=wrap;rounded=1;strokeColor=#d6b656;glass=0;shadow=0;fillColor=#fff2cc;labelBackgroundColor=none;labelBorderColor=none;spacing=2;arcSize=50;" parent="1" vertex="1">
                    <mxGeometry x="140" y="-20" width="100" height="30" as="geometry"/>
                </mxCell>
                <mxCell id="35" value="is-primitive" style="text;html=1;align=center;verticalAlign=middle;whiteSpace=wrap;rounded=1;strokeColor=#d6b656;glass=0;shadow=0;fillColor=#fff2cc;labelBackgroundColor=none;labelBorderColor=none;spacing=2;arcSize=50;" parent="1" vertex="1">
                    <mxGeometry x="150" y="100" width="80" height="30" as="geometry"/>
                </mxCell>
                <mxCell id="36" value="is-special-type" style="text;html=1;align=center;verticalAlign=middle;whiteSpace=wrap;rounded=1;strokeColor=#d6b656;glass=0;shadow=0;fillColor=#fff2cc;labelBackgroundColor=none;labelBorderColor=none;spacing=2;arcSize=50;" parent="1" vertex="1">
                    <mxGeometry x="140" y="140" width="100" height="30" as="geometry"/>
                </mxCell>
                <mxCell id="37" value="is-numeric-integral" style="text;html=1;align=center;verticalAlign=middle;whiteSpace=wrap;rounded=1;strokeColor=#d6b656;glass=0;shadow=0;fillColor=#fff2cc;labelBackgroundColor=none;labelBorderColor=none;spacing=2;arcSize=50;" parent="1" vertex="1">
                    <mxGeometry x="130" y="20" width="120" height="30" as="geometry"/>
                </mxCell>
                <mxCell id="38" value="is-numeric-prime" style="text;html=1;align=center;verticalAlign=middle;whiteSpace=wrap;rounded=1;strokeColor=#d6b656;glass=0;shadow=0;fillColor=#fff2cc;labelBackgroundColor=none;labelBorderColor=none;spacing=2;arcSize=50;" parent="1" vertex="1">
                    <mxGeometry x="135" y="60" width="110" height="30" as="geometry"/>
                </mxCell>
                <mxCell id="39" value="is-string-ascii" style="text;html=1;align=center;verticalAlign=middle;whiteSpace=wrap;rounded=1;strokeColor=#d6b656;glass=0;shadow=0;fillColor=#fff2cc;labelBackgroundColor=none;labelBorderColor=none;spacing=2;arcSize=50;" parent="1" vertex="1">
                    <mxGeometry x="145" y="180" width="90" height="30" as="geometry"/>
                </mxCell>
                <mxCell id="40" value="is-string-singleline" style="text;html=1;align=center;verticalAlign=middle;whiteSpace=wrap;rounded=1;strokeColor=#d6b656;glass=0;shadow=0;fillColor=#fff2cc;labelBackgroundColor=none;labelBorderColor=none;spacing=2;arcSize=50;" parent="1" vertex="1">
                    <mxGeometry x="130" y="220" width="120" height="30" as="geometry"/>
                </mxCell>
                <mxCell id="96" style="edgeStyle=none;html=1;exitX=1;exitY=0.5;exitDx=0;exitDy=0;entryX=0;entryY=0.5;entryDx=0;entryDy=0;endArrow=blockThin;endFill=1;rounded=0;curved=1;" parent="1" source="41" target="68" edge="1">
                    <mxGeometry relative="1" as="geometry"/>
                </mxCell>
                <mxCell id="41" value="string-dissect" style="text;html=1;align=center;verticalAlign=middle;whiteSpace=wrap;rounded=1;strokeColor=#d6b656;glass=0;shadow=0;fillColor=#fff2cc;labelBackgroundColor=none;labelBorderColor=none;spacing=2;arcSize=50;" parent="1" vertex="1">
                    <mxGeometry x="145" y="260" width="90" height="30" as="geometry"/>
                </mxCell>
                <mxCell id="98" style="html=1;exitX=0;exitY=0.5;exitDx=0;exitDy=0;entryX=1;entryY=0.5;entryDx=0;entryDy=0;endArrow=blockThin;endFill=1;rounded=0;" parent="1" source="44" target="39" edge="1">
                    <mxGeometry relative="1" as="geometry"/>
                </mxCell>
                <mxCell id="44" value="deno-lint-rules" style="text;html=1;align=center;verticalAlign=middle;whiteSpace=wrap;rounded=1;strokeColor=#666666;glass=0;shadow=0;fillColor=#E6E6E6;labelBackgroundColor=none;labelBorderColor=none;spacing=2;gradientColor=none;arcSize=50;fillStyle=auto;" parent="1" vertex="1">
                    <mxGeometry x="290" y="20" width="100" height="30" as="geometry"/>
                </mxCell>
                <mxCell id="46" value="" style="rounded=0;whiteSpace=wrap;html=1;fillColor=none;shadow=0;strokeColor=default;" parent="1" vertex="1">
                    <mxGeometry x="-220" y="120" width="150" height="80" as="geometry"/>
                </mxCell>
                <mxCell id="47" value="CI / Workflow" style="text;html=1;align=center;verticalAlign=middle;whiteSpace=wrap;rounded=0;fontStyle=1;shadow=0;" parent="1" vertex="1">
                    <mxGeometry x="-220" y="120" width="150" height="30" as="geometry"/>
                </mxCell>
                <mxCell id="101" style="edgeStyle=orthogonalEdgeStyle;html=1;exitX=0;exitY=0.5;exitDx=0;exitDy=0;entryX=0;entryY=0.5;entryDx=0;entryDy=0;endArrow=blockThin;endFill=1;rounded=0;curved=1;" parent="1" source="48" target="72" edge="1">
                    <mxGeometry relative="1" as="geometry">
                        <Array as="points">
                            <mxPoint x="-230" y="175"/>
                            <mxPoint x="-230" y="275"/>
                        </Array>
                    </mxGeometry>
                </mxCell>
                <mxCell id="102" style="edgeStyle=orthogonalEdgeStyle;html=1;exitX=0;exitY=0.5;exitDx=0;exitDy=0;entryX=0;entryY=0.5;entryDx=0;entryDy=0;endArrow=blockThin;endFill=1;rounded=0;curved=1;" parent="1" source="48" target="73" edge="1">
                    <mxGeometry relative="1" as="geometry">
                        <Array as="points">
                            <mxPoint x="-230" y="175"/>
                            <mxPoint x="-230" y="315"/>
                        </Array>
                    </mxGeometry>
                </mxCell>
                <mxCell id="108" style="html=1;exitX=1;exitY=0.5;exitDx=0;exitDy=0;entryX=0;entryY=0.5;entryDx=0;entryDy=0;endArrow=blockThin;endFill=1;rounded=0;" parent="1" source="48" target="33" edge="1">
                    <mxGeometry relative="1" as="geometry"/>
                </mxCell>
                <mxCell id="109" style="edgeStyle=none;html=1;exitX=1;exitY=0.5;exitDx=0;exitDy=0;entryX=0;entryY=0.5;entryDx=0;entryDy=0;endArrow=blockThin;endFill=1;rounded=0;curved=1;" parent="1" source="48" target="40" edge="1">
                    <mxGeometry relative="1" as="geometry"/>
                </mxCell>
                <mxCell id="48" value="github-actions-core" style="text;html=1;align=center;verticalAlign=middle;whiteSpace=wrap;rounded=1;strokeColor=#d6b656;glass=0;shadow=0;fillColor=#fff2cc;labelBackgroundColor=none;labelBorderColor=none;spacing=2;arcSize=50;" parent="1" vertex="1">
                    <mxGeometry x="-210" y="160" width="130" height="30" as="geometry"/>
                </mxCell>
                <mxCell id="50" value="" style="rounded=0;whiteSpace=wrap;html=1;fillColor=none;shadow=0;" parent="1" vertex="1">
                    <mxGeometry x="-120" y="-100" width="130" height="120" as="geometry"/>
                </mxCell>
                <mxCell id="51" value="Crypto" style="text;html=1;align=center;verticalAlign=middle;whiteSpace=wrap;rounded=0;fontStyle=1;shadow=0;" parent="1" vertex="1">
                    <mxGeometry x="-120" y="-100" width="130" height="30" as="geometry"/>
                </mxCell>
                <mxCell id="110" style="edgeStyle=none;html=1;exitX=1;exitY=0.5;exitDx=0;exitDy=0;entryX=0;entryY=0.5;entryDx=0;entryDy=0;endArrow=blockThin;endFill=1;rounded=0;curved=1;" parent="1" source="52" target="33" edge="1">
                    <mxGeometry relative="1" as="geometry"/>
                </mxCell>
                <mxCell id="52" value="github-sodium" style="text;html=1;align=center;verticalAlign=middle;whiteSpace=wrap;rounded=1;strokeColor=#d6b656;glass=0;shadow=0;fillColor=#fff2cc;labelBackgroundColor=none;labelBorderColor=none;spacing=2;arcSize=50;" parent="1" vertex="1">
                    <mxGeometry x="-105" y="-60" width="100" height="30" as="geometry"/>
                </mxCell>
                <mxCell id="53" value="symmetric-crypto" style="text;html=1;align=center;verticalAlign=middle;whiteSpace=wrap;rounded=1;strokeColor=#d6b656;glass=0;shadow=0;fillColor=#fff2cc;labelBackgroundColor=none;labelBorderColor=none;spacing=2;arcSize=50;" parent="1" vertex="1">
                    <mxGeometry x="-110" y="-20" width="110" height="30" as="geometry"/>
                </mxCell>
                <mxCell id="54" value="" style="rounded=0;whiteSpace=wrap;html=1;fillColor=none;shadow=0;strokeColor=default;" parent="1" vertex="1">
                    <mxGeometry x="-360" y="220" width="120" height="200" as="geometry"/>
                </mxCell>
                <mxCell id="55" value="Checksum / Hash" style="text;html=1;align=center;verticalAlign=middle;whiteSpace=wrap;rounded=0;fontStyle=1;shadow=0;" parent="1" vertex="1">
                    <mxGeometry x="-360" y="220" width="120" height="30" as="geometry"/>
                </mxCell>
                <mxCell id="56" value="adler32" style="text;html=1;align=center;verticalAlign=middle;whiteSpace=wrap;rounded=1;strokeColor=#d6b656;glass=0;shadow=0;fillColor=#fff2cc;labelBackgroundColor=none;labelBorderColor=none;spacing=2;arcSize=50;" parent="1" vertex="1">
                    <mxGeometry x="-330" y="260" width="60" height="30" as="geometry"/>
                </mxCell>
                <mxCell id="57" value="djb2a" style="text;html=1;align=center;verticalAlign=middle;whiteSpace=wrap;rounded=1;strokeColor=#d6b656;glass=0;shadow=0;fillColor=#fff2cc;labelBackgroundColor=none;labelBorderColor=none;spacing=2;arcSize=50;" parent="1" vertex="1">
                    <mxGeometry x="-325" y="300" width="50" height="30" as="geometry"/>
                </mxCell>
                <mxCell id="58" value="fnv" style="text;html=1;align=center;verticalAlign=middle;whiteSpace=wrap;rounded=1;strokeColor=#d6b656;glass=0;shadow=0;fillColor=#fff2cc;labelBackgroundColor=none;labelBorderColor=none;spacing=2;arcSize=50;" parent="1" vertex="1">
                    <mxGeometry x="-320" y="340" width="40" height="30" as="geometry"/>
                </mxCell>
                <mxCell id="59" value="sdbm" style="text;html=1;align=center;verticalAlign=middle;whiteSpace=wrap;rounded=1;strokeColor=#d6b656;glass=0;shadow=0;fillColor=#fff2cc;labelBackgroundColor=none;labelBorderColor=none;spacing=2;arcSize=50;" parent="1" vertex="1">
                    <mxGeometry x="-325" y="380" width="50" height="30" as="geometry"/>
                </mxCell>
                <mxCell id="60" value="" style="rounded=0;whiteSpace=wrap;html=1;fillColor=none;arcSize=12;glass=0;shadow=0;strokeColor=default;" parent="1" vertex="1">
                    <mxGeometry x="170" y="320" width="120" height="120" as="geometry"/>
                </mxCell>
                <mxCell id="61" value="Iterate" style="text;html=1;align=center;verticalAlign=middle;whiteSpace=wrap;rounded=0;fontStyle=1;shadow=0;" parent="1" vertex="1">
                    <mxGeometry x="170" y="320" width="120" height="30" as="geometry"/>
                </mxCell>
                <mxCell id="62" value="range-iterator" style="text;html=1;align=center;verticalAlign=middle;whiteSpace=wrap;rounded=1;strokeColor=#d6b656;glass=0;shadow=0;fillColor=#fff2cc;labelBackgroundColor=none;labelBorderColor=none;spacing=2;arcSize=50;" parent="1" vertex="1">
                    <mxGeometry x="180" y="360" width="100" height="30" as="geometry"/>
                </mxCell>
                <mxCell id="99" style="edgeStyle=none;html=1;exitX=0;exitY=0.5;exitDx=0;exitDy=0;entryX=1;entryY=0.5;entryDx=0;entryDy=0;endArrow=blockThin;endFill=1;rounded=0;curved=1;" parent="1" source="63" target="79" edge="1">
                    <mxGeometry relative="1" as="geometry"/>
                </mxCell>
                <mxCell id="63" value="setation" style="text;html=1;align=center;verticalAlign=middle;whiteSpace=wrap;rounded=1;strokeColor=#d6b656;glass=0;shadow=0;fillColor=#fff2cc;labelBackgroundColor=none;labelBorderColor=none;spacing=2;arcSize=50;" parent="1" vertex="1">
                    <mxGeometry x="195" y="400" width="70" height="30" as="geometry"/>
                </mxCell>
                <mxCell id="66" value="" style="rounded=0;whiteSpace=wrap;html=1;fillColor=none;shadow=0;strokeColor=default;" parent="1" vertex="1">
                    <mxGeometry x="280" y="220" width="130" height="80" as="geometry"/>
                </mxCell>
                <mxCell id="67" value="Regular Expression" style="text;html=1;align=center;verticalAlign=middle;whiteSpace=wrap;rounded=0;fontStyle=1;shadow=0;" parent="1" vertex="1">
                    <mxGeometry x="280" y="220" width="130" height="30" as="geometry"/>
                </mxCell>
                <mxCell id="68" value="url-regexp" style="text;html=1;align=center;verticalAlign=middle;whiteSpace=wrap;rounded=1;strokeColor=#d6b656;glass=0;shadow=0;fillColor=#fff2cc;labelBackgroundColor=none;labelBorderColor=none;spacing=2;arcSize=50;" parent="1" vertex="1">
                    <mxGeometry x="305" y="260" width="80" height="30" as="geometry"/>
                </mxCell>
                <mxCell id="70" value="" style="rounded=0;whiteSpace=wrap;html=1;fillColor=none;shadow=0;strokeColor=default;" parent="1" vertex="1">
                    <mxGeometry x="-220" y="220" width="90" height="200" as="geometry"/>
                </mxCell>
                <mxCell id="71" value="System" style="text;html=1;align=center;verticalAlign=middle;whiteSpace=wrap;rounded=0;fontStyle=1;shadow=0;" parent="1" vertex="1">
                    <mxGeometry x="-220" y="220" width="90" height="30" as="geometry"/>
                </mxCell>
                <mxCell id="72" value="env" style="text;html=1;align=center;verticalAlign=middle;whiteSpace=wrap;rounded=1;strokeColor=#d6b656;glass=0;shadow=0;fillColor=#fff2cc;labelBackgroundColor=none;labelBorderColor=none;spacing=2;arcSize=50;" parent="1" vertex="1">
                    <mxGeometry x="-195" y="260" width="40" height="30" as="geometry"/>
                </mxCell>
                <mxCell id="73" value="eol" style="text;html=1;align=center;verticalAlign=middle;whiteSpace=wrap;rounded=1;strokeColor=#d6b656;glass=0;shadow=0;fillColor=#fff2cc;labelBackgroundColor=none;labelBorderColor=none;spacing=2;arcSize=50;" parent="1" vertex="1">
                    <mxGeometry x="-195" y="300" width="40" height="30" as="geometry"/>
                </mxCell>
                <mxCell id="95" style="html=1;exitX=0;exitY=0.5;exitDx=0;exitDy=0;endArrow=blockThin;endFill=1;rounded=0;curved=1;entryX=1;entryY=0.5;entryDx=0;entryDy=0;" parent="1" source="74" edge="1" target="58">
                    <mxGeometry relative="1" as="geometry">
                        <mxPoint x="-310" y="575" as="targetPoint"/>
                    </mxGeometry>
                </mxCell>
                <mxCell id="106" style="html=1;exitX=1;exitY=0.5;exitDx=0;exitDy=0;entryX=0;entryY=0.5;entryDx=0;entryDy=0;endArrow=blockThin;endFill=1;rounded=0;" parent="1" source="74" target="33" edge="1">
                    <mxGeometry relative="1" as="geometry"/>
                </mxCell>
                <mxCell id="107" style="html=1;exitX=1;exitY=0.5;exitDx=0;exitDy=0;entryX=0;entryY=0.5;entryDx=0;entryDy=0;endArrow=blockThin;endFill=1;rounded=0;" parent="1" source="74" target="79" edge="1">
                    <mxGeometry relative="1" as="geometry"/>
                </mxCell>
                <mxCell id="74" value="fs" style="text;html=1;align=center;verticalAlign=middle;whiteSpace=wrap;rounded=1;strokeColor=#d6b656;glass=0;shadow=0;fillColor=#fff2cc;labelBackgroundColor=none;labelBorderColor=none;spacing=2;arcSize=50;" parent="1" vertex="1">
                    <mxGeometry x="-190" y="340" width="30" height="30" as="geometry"/>
                </mxCell>
                <mxCell id="113" style="edgeStyle=none;html=1;exitX=1;exitY=0.5;exitDx=0;exitDy=0;entryX=0;entryY=0.5;entryDx=0;entryDy=0;endArrow=blockThin;endFill=1;rounded=0;curved=1;" parent="1" source="75" target="33" edge="1">
                    <mxGeometry relative="1" as="geometry"/>
                </mxCell>
                <mxCell id="75" value="process" style="text;html=1;align=center;verticalAlign=middle;whiteSpace=wrap;rounded=1;strokeColor=#d6b656;glass=0;shadow=0;fillColor=#fff2cc;labelBackgroundColor=none;labelBorderColor=none;spacing=2;arcSize=50;" parent="1" vertex="1">
                    <mxGeometry x="-210" y="380" width="70" height="30" as="geometry"/>
                </mxCell>
                <mxCell id="76" value="" style="rounded=0;whiteSpace=wrap;html=1;fillColor=none;shadow=0;strokeColor=default;" parent="1" vertex="1">
                    <mxGeometry x="30" y="320" width="120" height="200" as="geometry"/>
                </mxCell>
                <mxCell id="77" value="Types Operation" style="text;html=1;align=center;verticalAlign=middle;whiteSpace=wrap;rounded=0;fontStyle=1;shadow=0;" parent="1" vertex="1">
                    <mxGeometry x="30" y="320" width="120" height="30" as="geometry"/>
                </mxCell>
                <mxCell id="78" value="shuffle-array" style="text;html=1;align=center;verticalAlign=middle;whiteSpace=wrap;rounded=1;strokeColor=#d6b656;glass=0;shadow=0;fillColor=#fff2cc;labelBackgroundColor=none;labelBorderColor=none;spacing=2;arcSize=50;" parent="1" vertex="1">
                    <mxGeometry x="45" y="360" width="90" height="30" as="geometry"/>
                </mxCell>
                <mxCell id="79" value="sort" style="text;html=1;align=center;verticalAlign=middle;whiteSpace=wrap;rounded=1;strokeColor=#d6b656;glass=0;shadow=0;fillColor=#fff2cc;labelBackgroundColor=none;labelBorderColor=none;spacing=2;arcSize=50;" parent="1" vertex="1">
                    <mxGeometry x="70" y="400" width="40" height="30" as="geometry"/>
                </mxCell>
                <mxCell id="100" style="edgeStyle=none;html=1;exitX=1;exitY=0.5;exitDx=0;exitDy=0;entryX=0.5;entryY=1;entryDx=0;entryDy=0;endArrow=blockThin;endFill=1;rounded=0;curved=1;" parent="1" source="80" target="41" edge="1">
                    <mxGeometry relative="1" as="geometry"/>
                </mxCell>
                <mxCell id="80" value="string-overflow" style="text;html=1;align=center;verticalAlign=middle;whiteSpace=wrap;rounded=1;strokeColor=#d6b656;glass=0;shadow=0;fillColor=#fff2cc;labelBackgroundColor=none;labelBorderColor=none;spacing=2;arcSize=50;" parent="1" vertex="1">
                    <mxGeometry x="40" y="440" width="100" height="30" as="geometry"/>
                </mxCell>
                <mxCell id="81" value="unique-array" style="text;html=1;align=center;verticalAlign=middle;whiteSpace=wrap;rounded=1;strokeColor=#d6b656;glass=0;shadow=0;fillColor=#fff2cc;labelBackgroundColor=none;labelBorderColor=none;spacing=2;arcSize=50;" parent="1" vertex="1">
                    <mxGeometry x="45" y="480" width="90" height="30" as="geometry"/>
                </mxCell>
                <mxCell id="83" value="Units" style="text;html=1;align=center;verticalAlign=middle;whiteSpace=wrap;rounded=0;fontStyle=1;shadow=0;" parent="1" vertex="1">
                    <mxGeometry x="-250" y="-100" width="110" height="30" as="geometry"/>
                </mxCell>
                <mxCell id="84" value="pressure" style="text;html=1;align=center;verticalAlign=middle;whiteSpace=wrap;rounded=1;strokeColor=#d6b656;glass=0;shadow=0;fillColor=#fff2cc;labelBackgroundColor=none;labelBorderColor=none;spacing=2;arcSize=50;" parent="1" vertex="1">
                    <mxGeometry x="-230" y="-60" width="70" height="30" as="geometry"/>
                </mxCell>
                <mxCell id="85" value="temperature" style="text;html=1;align=center;verticalAlign=middle;whiteSpace=wrap;rounded=1;strokeColor=#d6b656;glass=0;shadow=0;fillColor=#fff2cc;labelBackgroundColor=none;labelBorderColor=none;spacing=2;arcSize=50;" parent="1" vertex="1">
                    <mxGeometry x="-240" y="-20" width="90" height="30" as="geometry"/>
                </mxCell>
                <mxCell id="26" value="Bundler / Compiler / Transformer" style="text;html=1;align=center;verticalAlign=middle;whiteSpace=wrap;rounded=0;fontStyle=1;shadow=0;" parent="1" vertex="1">
                    <mxGeometry x="-190" y="490" width="200" height="30" as="geometry"/>
                </mxCell>
                <mxCell id="42" value="Formatter / Linter" style="text;html=1;align=center;verticalAlign=middle;whiteSpace=wrap;rounded=0;fontStyle=1;shadow=0;" parent="1" vertex="1">
                    <mxGeometry x="280" y="-20" width="120" height="30" as="geometry"/>
                </mxCell>
                <mxCell id="124" value="hugoalh ES Dependencies Graph" style="text;strokeColor=none;fillColor=none;html=1;fontSize=24;fontStyle=1;verticalAlign=middle;align=left;whiteSpace=wrap;" vertex="1" parent="1">
                    <mxGeometry x="-360" y="-160" width="390" height="40" as="geometry"/>
                </mxCell>
                <mxCell id="126" value="ℹ️ Note" style="text;html=1;align=left;verticalAlign=middle;whiteSpace=wrap;rounded=0;fontStyle=1" vertex="1" parent="1">
                    <mxGeometry x="310" y="400" width="210" height="30" as="geometry"/>
                </mxCell>
                <mxCell id="128" value="&lt;ul style=&quot;padding-left: 16pt; margin-top: 0px; margin-bottom: 0px;&quot;&gt;&lt;li&gt;External dependencies are not rendered.&lt;/li&gt;&lt;li&gt;Only the latest release version of the packages are rendered.&lt;/li&gt;&lt;/ul&gt;" style="text;html=1;align=left;verticalAlign=top;whiteSpace=wrap;rounded=0;" vertex="1" parent="1">
                    <mxGeometry x="310" y="430" width="210" height="90" as="geometry"/>
                </mxCell>
                <mxCell id="129" value="Widely Available" style="text;html=1;align=center;verticalAlign=middle;whiteSpace=wrap;rounded=1;strokeColor=#d6b656;glass=0;shadow=0;fillColor=#fff2cc;labelBackgroundColor=none;labelBorderColor=none;spacing=2;arcSize=50;fontStyle=2" vertex="1" parent="1">
                    <mxGeometry x="410" y="-100" width="110" height="30" as="geometry"/>
                </mxCell>
                <mxCell id="130" value="Deno Only" style="text;html=1;align=center;verticalAlign=middle;whiteSpace=wrap;rounded=1;strokeColor=#666666;glass=0;shadow=0;fillColor=#E6E6E6;labelBackgroundColor=none;labelBorderColor=none;spacing=2;gradientColor=none;arcSize=50;fillStyle=auto;fontStyle=2" vertex="1" parent="1">
                    <mxGeometry x="410" y="-60" width="110" height="30" as="geometry"/>
                </mxCell>
            </root>
        </mxGraphModel>
    </diagram>
</mxfile>